<svg xmlns="http://www.w3.org/2000/svg" viewBox="0 0 999.91 1000.91"><defs><style>.cls-1{fill:#62e4fc;}.cls-2{fill:#fce175;}.cls-3{fill:#62b2df;}.cls-4{fill:#fff;opacity:0;}</style></defs><g id="Шар_2" data-name="Шар 2"><g id="Defult"><path class="cls-1" d="M771.94,1000.91H682c-1.71-1.95-1.5-4.35-1.46-6.66.37-23.65-1.5-47.24-2.22-70.85-.32-10.29-.91-20.61-1.87-30.88-.22-2.45-.67-5-3.65-5.09-3.31-.06-3.42,2.9-3.22,5.14,1.17,13.53-6.46,21-17.67,26-15.15,6.84-31.21,10.61-47.42,13.72-22.76,4.35-45.79,6.46-68.88,8.27a643.11,643.11,0,0,1-71.85,1.66c-31-1-61.87-3.17-92-11.36a142.2,142.2,0,0,1-25.34-9.15,54.16,54.16,0,0,1-7.64-4.72c-6.95-5-10.68-11-8.29-20.06,1.44-5.44,1.74-11.18,2.51-16.79a21.19,21.19,0,0,0,.38-4c-.11-2.34-.77-4.52-3.46-4.71s-3,2.19-3.32,4.15c-1.59,9-2.71,18.12-3.9,27.2-4.07,31-6.58,62.23-9.16,93.42-.14,1.68-.27,3.33-1.47,4.66h-90c-1.54-1.69-1.24-3.69-.93-5.68a769.42,769.42,0,0,1,25.19-109.84c8.53-27.32,17-54.7,28.09-81.09,17.32-41.18,46.8-70.12,89.16-85.37,2.52-.91,5.08-1.64,7.79-.81,2.14.82,3.17,2.9,4.83,4.26,1.49,1.22,3.16,2.19,4.91.62,1.55-1.39,1.5-3.25.71-5.07-.68-1.55-2-2.67-3-4-14.89-19.32-19.84-40.45-11-63.78,4-10.72,11.67-17.91,22.88-21.31,17.82-5.4,36.21-7.31,54.6-9.05,20.87-2,41.84-3.54,62.77-3,24.08.61,48.26,1.2,72,6.46a115.09,115.09,0,0,1,28.69,10c9,4.71,15.36,11.56,18.7,21.16a88.61,88.61,0,0,1,3.6,45.79c-1.26,6.85-3.85,13.07-9,18-1.92,1.85-3.48,4.07-1.11,6.45s4.25.3,6-1.19c4.74-4,7.42-9.35,9.57-15,1.26-3.31,3.14-4.91,6.87-3.43,13.17,5.23,26.25,10.43,37.25,19.89,13.15,11.3,22.41,25.37,30.57,40.37,17.93,33,27.75,68.77,35.77,105.13,9,40.66,17.21,81.48,25.26,122.34C772.73,995.45,774.09,998.27,771.94,1000.91Z"/><path class="cls-2" d="M672,1000.91H322c-1.7-2-1.6-4.35-1.39-6.66,2.07-22.19,3.69-44.43,6.11-66.6,0-.33.09-.66.14-1,1.09-6.64,2.27-7.23,7.82-3.42,16.54,11.36,35.64,15.4,54.81,19,20.64,3.86,41.53,5.33,62.51,6.41,17.49.91,35,1.29,52.41.6,44.93-1.77,89.77-4.89,133.3-17.56a102,102,0,0,0,26-11.31c5.06-3.19,7.51-1.89,7.6,4,.35,23,2.44,45.86,2.08,68.83C673.41,995.88,673.89,998.64,672,1000.91Z"/><path d="M771.94,1000.91c-1.51-12.55-4.55-24.82-7.05-37.18-8.16-40.23-15.82-80.57-25.95-120.38-7.93-31.2-18.91-61.17-35.55-89-14.46-24.17-35.09-39.93-61.61-48.63-2.8-.91-3,.3-3.57,2.11a36.51,36.51,0,0,1-11.85,18.09c-2.33,1.9-4.8,2.72-7,.09-2.05-2.46-2.34-5.61.2-7.64,8.19-6.56,10.18-15.77,11.08-25.31A88.11,88.11,0,0,0,626,654.73c-3.42-9.6-9.89-16.36-19-20.85-15.92-7.9-33-11.1-50.48-12.85-45.6-4.58-91.08-2.74-136.45,3.07a192.36,192.36,0,0,0-29.73,6.27c-15,4.41-21.54,16-24.28,30.08-4,20.68,1.89,38.8,15.48,54.6,1.54,1.79,3.24,3.37,2.82,6a5,5,0,0,1-8.27,3.25,59.57,59.57,0,0,1-5.11-5.41c-4.25-2.3-6.13-6.53-8.11-10.49-1.74-3.49-3.64-4.47-7.46-3.15-38.43,13.23-68.11,37-88.4,72.42-13.43,23.44-22.18,48.77-30.47,74.29-11.06,34.07-21.14,68.43-29.49,103.27-3.06,12.8-6.11,25.6-9,38.44-.58,2.57-.79,5.34-3.07,7.2h-10c2.19-13.45,5.89-26.57,9-39.8,12-50.44,26.21-100.23,44.09-148.91,10.65-29,25.23-55.64,47.39-77.68,19.14-19,42-31.84,67.3-40.48,3.34-1.14,4.47-2.14,3.65-6.11-3.45-16.76-2.37-33.13,6.44-48.3a40.35,40.35,0,0,1,24.09-18.94c22.3-6.72,45.32-8.76,68.37-10.52,30.56-2.34,61.14-3.08,91.71-.17,18.21,1.73,36.32,3.85,53.85,9.74,23.57,7.9,36.07,24.18,39,48.53a129.41,129.41,0,0,1,1,22.41c-.17,3.13,1,4.29,3.63,5.33,13.46,5.24,27,10.33,38.52,19.47,17.9,14.21,29.58,33,39.81,53,15.57,30.42,24.83,62.91,31.89,96.13C764.32,909,773.57,953.45,782.17,998c.19,1,.51,1.93.77,2.9Z"/><path class="cls-3" d="M195.07,1000.91c6.42-27.32,12.41-54.75,20.05-81.76,11.79-41.69,23.42-83.46,41.16-123.14,16.48-36.84,41.4-66,78.51-83.57a222.63,222.63,0,0,1,23.09-9.3c2.18-.75,3.53-.73,4.59,1.82,2.11,5.07,5.54,9.41,8.57,14-6.57-.07-12.2,3.09-17.93,5.58-28.64,12.48-50.53,32.69-66.93,59.12-7.24,11.67-12.36,24.31-16.88,37.16-12,34.16-23.78,68.4-32.55,103.59-5.92,23.8-10.47,47.87-14.56,72a30.46,30.46,0,0,0-.13,4.49Z"/><path d="M672,1000.91c.25-21.64-1.11-43.23-1.87-64.83-.19-5.6,0-11.22,0-17.58-28.19,17.64-58.81,22.07-89.35,26.31A704.36,704.36,0,0,1,461.2,950.7c-34-1.08-67.73-3.94-100.54-13.71-11.23-3.34-21.83-7.92-31.43-16.22-3,27-5.52,53.55-7.19,80.14H312c0-14.83,2-29.53,3.26-44.26,2.4-27.19,5.4-54.31,9.67-81.28.53-3.34,1-6.71,5.45-6,4,.63,5.24,3.59,4.67,7.46-1.28,8.55-2.46,17.12-3.77,25.67-.47,3.07-.2,5.44,2.25,8,8.28,8.64,18.81,13,29.8,16.43,29,9,58.94,11.83,89.1,13.19a731.62,731.62,0,0,0,109.67-3.32c28-2.94,55.77-7,82.39-16.7a73.37,73.37,0,0,0,14.3-7Q668.47,907,668,895.6c-.07-1.5,0-3-.18-4.5-.32-3.36,1-5.77,4.47-5.85s5.52,1.81,5.71,5.52c.65,13.13,1.5,26.25,2,39.38.91,22.11,1.64,44.23,2.41,66.35a31.57,31.57,0,0,1-.46,4.41Z"/><path d="M526.2,672.46a11.14,11.14,0,0,1-8.73-5.22c-2.86-4.41-6.58-5.45-11.72-5.4-32.63.34-65.19-.8-97.51-5.85-3-.46-6-1-8.46-2.73-2.92-2-4.42-4.82-2.3-8.11,2-3.06,4.84-3,7.85-1.16,5.19,3.13,11.19,3.09,16.88,3.68,27.3,2.86,54.67,4.72,82.15,3.8,8.07-.27,15.7.52,20.35,8.53,1.19,2.06,2.68,2.31,4.1.1,5.82-9.1,14.81-10.71,24.7-11.14a95.49,95.49,0,0,0,28.7-6c3.63-1.33,7-3,9.07-6.58,1.52-2.58,3.87-3.06,6.45-1.57s3.4,4.06,2.25,6.87c-1.37,3.37-4.06,5.63-7.1,7.46-8.44,5.06-17.86,7.12-27.39,8.66a173.28,173.28,0,0,1-18.34,1.95c-4.59.25-7.14,3.12-9.74,6.17C534.55,669.32,531.47,672.29,526.2,672.46Z"/><path d="M447,733.89c-2.62.4-3.17,2.35-4.63,3.1a5.5,5.5,0,0,1-7.22-1.25c-2-2.19-1.1-4.25.54-6.24,5.85-7.11,19.59-9.48,27.45-4.69a12.93,12.93,0,0,1,5,5.4c1.54,3.11.58,5.63-2.12,7.32-2.42,1.51-4.77,1.08-6.44-1.51-.43-.67-.79-1.48-1.53-1.51,0,8.34-.13,16.69,0,25,.37,19.11,1.57,38.21.47,57.35-.12,2,1.13,4.08,1.76,6.12,1.83,6,.89,11.16-2.63,13.78-2.82,2.09-6,2.45-8.81.33-4.52-3.42-4.63-8.35-3.13-13.16,5.28-16.82,2.19-34,2.37-51C448.2,760,447.36,747.12,447,733.89Z"/><path d="M574.82,723.71c-1.05.32-1.26.32-1.36.43-4.24,4.31-6.79,4.86-9.37,2-2.43-2.69-1.36-7.07,2.56-10.37,7.43-6.25,23.61-4.07,29.38,3.94,1.51,2.09,2.09,4.27.13,6.3a5.37,5.37,0,0,1-6.82,1.12c-1.46-.74-2-2.69-4.34-3,0,15.66-.09,31.2,0,46.74.07,8.64.48,17.27.79,25.91.22,5.95.17,11.91,2.56,17.61a15.94,15.94,0,0,1,.59,9.81c-.87,3.71-3,6.42-7.07,6.62s-6.44-2.17-7.89-5.71a13.17,13.17,0,0,1,.55-10.67A19.2,19.2,0,0,0,576,804.8c-1.79-25.08-.85-50.2-1.14-75.3C574.8,727.73,574.82,726,574.82,723.71Z"/><rect class="cls-4" width="999.91" height="999.91"/></g></g></svg>