<svg xmlns="http://www.w3.org/2000/svg" viewBox="0 0 999.91 999.92"><defs><style>.cls-1{fill:#a9bdfb;}.cls-2{fill:#8a7ce7;}.cls-3{fill:#8a7de7;}.cls-4{fill:#010101;}.cls-5{fill:#8376da;}.cls-6{fill:#7b63cc;}.cls-7{fill:#fff;opacity:0;}</style></defs><g id="Шар_2" data-name="Шар 2"><g id="Alien"><path class="cls-1" d="M604,999.92H572c-3.09-4.62-2.73-10.19-4.14-15.27-.7-2.56-.92-5.25-1.53-7.83-.43-1.81-1.12-3.8-3.42-3.64s-3.18,2.13-3.42,4.25a18.23,18.23,0,0,0,.41,5.46c.74,3.93,1.62,7.82,2.32,11.75.31,1.75,1.1,3.58-.22,5.28H536c-2-1.54-2.58-3.82-3.27-6A212.38,212.38,0,0,1,523.56,946c-3.23-43.8,3.52-86.26,17.14-127.75,8.91-27.14,22-52.14,40.86-73.77,16.81-19.31,36.27-35.24,60.59-44.41,2.28-.86,4.72-1.79,3.73-4.83s-3.71-3-6.26-2.34c-4.16,1-7.54,4.42-12.17,4.13a4.6,4.6,0,0,1-1.9-.59c-16.91-11.3-36.47-12.71-55.8-14.95-16.58-1.92-33.24-1.06-49.86-.91A181.21,181.21,0,0,0,478.41,686c-7.84,1.91-15.18,5-20.74,11.22-3,1.26-5.48-.44-8.07-1.47-11.47-4.58-22.92-9.24-35.66-8.45a14.25,14.25,0,0,0-4,.44,3.11,3.11,0,0,0-2.23,3,3.24,3.24,0,0,0,1.89,3.24,5.88,5.88,0,0,0,2.91.59c18-.36,33.71,7.41,49.22,15A178.69,178.69,0,0,1,514,748.49c11.55,12.39,20.4,26.25,25.28,42.56a14.7,14.7,0,0,1-.36,10.23c-11.17,27-17.62,55.17-21.27,84.06-.51,4-.67,7.95-1.24,11.92a7.66,7.66,0,0,1-4.41,6.15c-9.79,5.19-20.6,7.65-30.85,11.58-2.93,1.13-4.75-.4-5.72-3.18-2.06-5.85-4.63-11.4-8.81-16.13-2.33-2.63-.74-4.58,1.59-6.12,7.16-4.73,13-10.94,18.78-17.16,6.17-6.63,10.3-14.31,9.67-23.83-.66-9.89-4.82-17.6-13.87-22.12-8.77-4.38-16.65-1.65-23.67,4a122.24,122.24,0,0,1-34.48,19.88c-5.69,2.1-6.66,1.46-7-4.65-.43-8.63-2.46-16.84-7.07-24.2-2.24-3.57-2.26-6.66.07-10.15s4.37-7.1,6.42-10.72,1.52-6.94-1.73-9.79c-16.32-14.3-33.16-27.88-52.1-38.63a88.62,88.62,0,0,0-27.46-10.37,21.87,21.87,0,0,0-5-.47c-2.12.09-4.76-.25-4.93,2.84-.15,2.63,1.9,3.84,4.19,4.14a73,73,0,0,1,15,3.74,14,14,0,0,1,3.63,1.65c1.91,1.4,1.61,2.73-.26,3.85a13,13,0,0,1-4.3,1.24,182.38,182.38,0,0,0-40.85,13.08c-3.45,1.59-6.2,1.55-9.09-1-27.43-24.63-32.75-57.56-5.76-87.58,22.77-25.31,52.37-38.92,84.58-47.66,23.72-6.43,47.95-9.74,72.36-12.07a595.68,595.68,0,0,1,75.3-2.79c46.18,1.47,92.09,5.45,136.83,18,19.8,5.56,38.27,13.69,53.12,28.52,23.1,23.1,28.68,57.88,14.87,87.82-6.71,14.55-17.16,25.46-29.12,35.6-20.07,17-35.31,37.79-47,61.49-4.65,9.45-4.16,16.48.92,25.74,9.7,17.72,13.68,37.2,9.74,57.5a72.59,72.59,0,0,1-15.38,32.15c-3.52,4.33-3.68,5.4-.24,10a56.33,56.33,0,0,1,8.18,14.25c.92,2.56,2.38,5.3.32,8.07H625c-8.28-8-13.67-17.92-18.14-28.39-.72-1.68-1.24-3.45-2-5.12-1-2.22-2.66-3.57-5.15-2.68s-2.33,3-1.78,5.06a79.72,79.72,0,0,0,5.81,14.32C606.43,988.69,605.92,994.29,604,999.92Z"/><path d="M627.91,696c5-.78,8.73-4.85,13.92-5,4.39-.15,6.89,2.41,6.08,6.35a4.27,4.27,0,0,1-2.63,3.41C602.88,716,575.86,747.46,555.77,786c-16,30.73-24.19,63.93-28.7,98.1-3.17,24-4.18,48.07-1.14,72.21A233.93,233.93,0,0,0,536,999.92H525c-2.26-1.8-2.77-4.45-3.44-7A307.42,307.42,0,0,1,515,962.7c-.79-5-1-5-5.7-3a91.75,91.75,0,0,1-25.41,6.87c-6.16.73-6,.9-6.63,7-.72,7.1-1.37,14.24-4.23,20.92-.92,2.16-1.8,4.31-4.05,5.47H457a2.53,2.53,0,0,1,.23-2.39,54,54,0,0,0,6.62-34.13c-.66-5.51,2.57-8.48,9-8.75a93.66,93.66,0,0,0,27.81-5.56c1.57-.56,3.09-1.24,4.64-1.84,5.26-2,8-5.4,7.42-11.43-.47-5.29,0-10.65-.12-16-.06-4.48-.51-4.83-4.6-3.24-7.61,3-15.47,5.22-23.14,8A112.67,112.67,0,0,1,461.06,930a18.24,18.24,0,0,1-8.85-1c-3.51-1.29-4.9-4-4.18-7.51s3.22-4.9,6.66-4.58,8.08,1.32,9.81-1.57c2-3.27-1.52-6.78-3.45-9.8-5.1-8-12.41-11.21-21.8-9.75-6.23,1-9.43-.43-10.18-4.31-.84-4.32,2.07-7.36,8.38-8.42a31.42,31.42,0,0,1,13.88.39,11,11,0,0,0,9.92-1.69c9.36-6.54,17.94-13.82,23.43-24.12a16.1,16.1,0,0,0,1.84-9.66c-1.34-11.61-11.85-16.38-21.2-9.44-5.89,4.38-11.92,8.51-18.16,12.36-7.72,4.75-16.15,7.88-24.55,11.08-8.57,3.27-17,6.77-24.69,11.92-4.28,2.87-7.55,2.52-9.73-.46-2.4-3.28-1.46-7.27,2.75-10.26a58.88,58.88,0,0,1,12.52-7.22c3.13-1.21,4.2-3.31,4.24-6.52.11-7.33-1.85-14.17-4.62-20.82a14.56,14.56,0,0,0-5.15-6c-6-4.37-13.6-2.26-16.6,4.54a38.5,38.5,0,0,0-2.83,13.13c-.74,11.07-5.93,19.53-14.38,26.34-12.59,10.16-24.85,20.61-33.67,34.52-7.84,12.38-11.94,25.93-14,40.26-2.59,18-.05,35.5,4.62,52.85.51,1.88,1.53,3.8,0,5.69H310c-2-1.79-4-.4-6,0H282c0-3,2.64-3.63,4.56-4.63,5-2.63,10-5.44,15.26-7.45,2.87-1.1,3.65-2.72,3.23-5.73-1.22-8.73-2.48-17.47-2.38-26.33a132.52,132.52,0,0,1,4.63-34c1-3.42.07-5.74-1.63-8.72-3.43-6-7.29-7.7-14.62-7.29-8.21.47-12.84,1.34-15.16,10.44-2.21,8.65-10,12.43-19.2,12-10.71-.49-19.2-4.89-24.68-14.46-2.87-5-3.13-5.1-8-2.13-30.22,18.53-49.81,45.08-59.59,79-.91,3.18-1.32,6.56-3.43,9.3h-11c3.81-15.88,8.87-31.28,17-45.58,13.45-23.74,31.64-42.66,55.91-55.42,2.82-1.49,3.82-3,3.05-6.11a48.15,48.15,0,0,1-1.35-14.87c.28-4-1.25-4.58-4.81-4.58-15,0-25.71-7.55-29-20.3-2.32-8.91.09-16.39,7.33-22.26,8.58-7,19-8.51,29.39-9.75,9.42-1.12,17.27-4.3,23.42-12.31,9-11.71,20.68-20.66,33.23-28.41,1.25-.77,2.47-1.58,4-2.58-9.81-8.91-17.57-19-22-31.2-9-24.8-3.3-47,13.35-66.43,20.94-24.46,48-39.65,78.39-49.2,37.24-11.72,75.68-16.16,114.5-18.12A688.68,688.68,0,0,1,592,617.12c29.91,3.7,59.66,8.48,87.81,19.85C702,645.92,721,659.25,732,681.15c16.48,33,12.26,64.67-8.25,94.68-.84,1.24-1.82,2.38-2.94,3.83,11.39,6.54,15.2,17.08,15.68,29.36.06,1.45-.33,3,1.43,3.91,8.81,4.59,14.27,12.07,17.92,21.72,3.67-4.78,6.64-9.38,10.89-12.86,4.57-3.74,9.41-6.83,15.59-7,10.61-.32,17.72,6,18.67,16.57.87,9.74-2.1,18.74-5.54,27.62-4.63,11.95-11.25,22.94-16.79,34.46-.28.57-.54,1.15-1.13,2.41A51.47,51.47,0,0,1,789,897c11.25,2.75,20.13,8.58,25,19.49,5.07,11.36,1.23,22.59-9.69,28.49-1.6.87-3.36,1.44-5,2.28-2.74,1.44-7.56.76-8.17,3.43-.53,2.3,2.53,5.46,4.08,8.2,7.4,13,12.62,27,17.69,41.06H802c-2.18-1.13-2.56-3.35-3.28-5.37a194.17,194.17,0,0,0-16.41-35.23c-1.62-2.71-3.29-4.36-6.8-3.05-14,5.2-25.76,13.06-33.1,26.55a31.84,31.84,0,0,0-3.48,9.28c-.52,2.74-.78,5.66-2.92,7.82H725c-1.43-2-.21-3.86.29-5.71,4.06-15,6.58-30.34,6.27-45.87-.66-32.6-11.06-62-30.21-88.4a262.45,262.45,0,0,0-22.52-26.71c-3.51-3.68-4.31-3.52-7.17.68a171.14,171.14,0,0,0-14.15,25.25c-1.66,3.64-1.42,6.7.56,10.33,12.73,23.24,16.88,47.87,10.66,73.83a68.53,68.53,0,0,1-11.84,25.17c-2.42,3.22-2.5,5.7-.25,8.91a41,41,0,0,1,7.08,15.86c.44,2.29,1.09,4.61-.71,6.66H653c-.29-8.47-4.8-15-9.64-21.47-4.22-5.59-4.2-6,.21-11.52,19.19-24.15,20.48-50.65,10.22-78.63-2.24-6.09-4.85-12.06-8.69-17.32-2.65-3.62-2.15-7-.58-10.74,12.41-30,31.5-54.9,56.6-75.44,30.6-25,39.42-67.9,20.79-100.81-11.14-19.67-29-31.18-49.6-38.93-23.95-9-49-13.37-74.26-16.9a650.88,650.88,0,0,0-103.08-5.93c-43.67.89-87.11,4.43-129.26,16.88-27.61,8.16-52.86,20.86-73.33,41.73-9.86,10.06-17,21.66-19.51,35.78-2.34,13.16,1.1,25,7.86,36.17a75.72,75.72,0,0,0,15.14,17.81c1.43,1.26,2.58,2.12,4.73,1.08a187.37,187.37,0,0,1,47.36-15,9.72,9.72,0,0,0,1.9-.77c-4.48-2.8-12.07-5.27-18-5.91a29.46,29.46,0,0,1-3-.28c-3.49-.72-5.19-2.93-4.73-6.46s3.09-4,6-3.72a78.58,78.58,0,0,1,29.78,9.31c21.46,11.41,40.28,26.45,58.17,42.74,2.81,2.57,3.07,5.32,1.12,8.45-.35.56-.7,1.12-1,1.69-2.65,4.42-6.13,8.57-7.71,13.35-1.66,5,3.93,8.35,5.3,13a78.23,78.23,0,0,1,3.54,22.67A107.67,107.67,0,0,0,447.91,837c3.29-2.25,6.43-4.73,9.58-7.19,10.15-7.92,19.81-9.08,28.52-3.36,9.67,6.36,14.59,19.5,11.35,30.76-3.65,12.71-13.27,20.85-22.66,29.09-2.61,2.29-6.91,3.65-7.95,6.38-.65,1.71,3.42,5.13,5.22,7.88A35.41,35.41,0,0,1,476.88,912c.55,2.37,1.62,2.59,3.48,1.89,10.4-3.89,21.3-6.46,31.19-11.75,2.19-1.18,3.39-2.41,3.62-5.2,2.81-33.51,10.07-66,22.94-97.13a9.72,9.72,0,0,0,.34-6.74c-6.26-22.48-19.84-40.07-37.05-55.11a194.27,194.27,0,0,0-69.48-39.15,53.58,53.58,0,0,0-20.13-2.89c-3.18.22-5.72-.39-5.93-4.25-.19-3.61,1.43-5.59,5.15-5.93,8.8-.81,17.25.94,25.48,3.73,6.91,2.34,13.67,5.11,20.5,7.68,6.91,1.09,12.51,5.17,18.48,8.32a121.86,121.86,0,0,1,15.68,9.73c2.45,1.81,4.68,1.86,7.39.56,10.71-5.14,22.19-7,33.92-7.06,15.27,0,30.61-1,45.78,1.91,4.58.89,9.12,1.95,13.58,3.24a9,9,0,0,0,8.81-1.76,156.07,156.07,0,0,1,18.17-12.29C621.67,698.09,624.56,696.5,627.91,696Z"/><path class="cls-2" d="M321,999.92c-3.94-14.64-7-29.41-6.85-44.7.35-33.13,13.12-60.29,38.83-81.32,4.89-4,9.79-8,14.44-12.29a30.23,30.23,0,0,0,9.73-20.7,73.3,73.3,0,0,1,1.83-11.3c1.31-5.52,4.12-9.86,10.38-10.61,6-.72,11.4,2.14,14.41,7.85a49.29,49.29,0,0,1,5.05,18.66c.81,8.78.68,8.69-7.09,12.71a112.52,112.52,0,0,0-11.09,6.69c-3.16,2.14-3.65,5.22-1.39,8.23s4.75,2,7.38.09c9.16-6.54,19.61-10.46,30.08-14.26a130,130,0,0,0,35.95-20.15c2.89-2.26,5.8-4.5,9.62-5,10-1.23,18.12,9.64,15.24,20.39a24.62,24.62,0,0,1-4.16,8.45,83.65,83.65,0,0,1-23.45,21.41,8,8,0,0,1-7.44,1c-5.8-2-11.78-1.7-17.72-.2-3.41.86-5.4,2.81-4.65,6.42S433.6,895.6,437,895c14.85-2.6,25.71,4.4,29.76,18.88.8,2.88,0,4-2.91,4.07-3.15,0-6.24.8-9.45.25-3-.52-5.4.51-5.69,4-.28,3.22,1.11,5.45,4.48,6.14,5.52,1.15,11,.21,16.32-.95,15.12-3.27,29.46-9,44.62-14.48,0,9.75-.09,19.17.05,28.58,0,2.66-1.83,3.35-3.47,4.31-11.16,6.54-23.42,9.29-36.16,10.14-9.28.63-9.75,1.28-9.23,10.4.7,12-.91,23.58-8.35,33.63Z"/><path class="cls-1" d="M161.06,999.92c4.82-25,16.13-46.67,33-65.55a128.22,128.22,0,0,1,31-25c3.36-2,5.14-2.46,7.15,1.92,4.1,8.92,11.5,13.9,21.28,15.4,12.23,1.87,21.51-4.45,23.43-16.7.69-4.43,1.3-6.72,6.72-5.27a24.61,24.61,0,0,0,14.75-1.14c2.33-.86,3.18-.29,4,1.89s1.85,4.57,3.54,5.93c4.42,3.55,3.67,7.35,2.36,12.14-5.36,19.6-5.51,39.47-1.6,59.35.71,3.58-.2,4.88-3.53,6a69.37,69.37,0,0,0-21.1,11Z"/><path class="cls-3" d="M663,999.92c.34-9.17-4-16.64-8.73-23.94-1.07-1.63-2.33-2.76-.63-5.14,24.16-33.78,20.59-68.2,2-102.81-1.11-2.06-1.63-3.65-.69-6,4.65-11.49,11-22,17.88-32.24,1.52-2.25,2.43-1.86,4.1-.22,25.37,25,44.76,53.57,52.49,89,6,27.5,3.57,54.56-4.39,81.32Z"/><path class="cls-2" d="M736,999.92c3.25-24.92,19.62-37.92,41.6-45.87,2.68-1,3.46.78,4.52,2.54A217.68,217.68,0,0,1,802,999.92Z"/><path class="cls-1" d="M469,999.92c5.24-9,6.9-19,6.74-29.23-.06-3.57.78-4.68,4.52-5.05,11.14-1.08,22-3.7,32-8.85,1.78-.91,3.3-2,3.63,1.33,1.45,14.27,5.1,28.07,9.08,41.8Z"/><path d="M604,999.92c.88-8.57-.46-16.66-5-24.13-1-1.67-1.38-3.72-2.12-5.57-1.34-3.38-2-6.76,2.41-8.17,3.94-1.27,6,.9,7.27,4.68,3.57,10.83,9.4,20.46,16.29,29.49.86,1.13,2.37,1.93,2.18,3.7Z"/><path class="cls-4" d="M562,999.92c-1.4-7.16-2.77-14.32-4.19-21.48-.81-4,.85-6.68,4.78-7.22s4.77,2.7,5.32,5.78q2,11.46,4.09,22.92Z"/><path class="cls-5" d="M304,999.92c2-.34,4-4.64,6,0Z"/><path class="cls-3" d="M627.91,696c-10.18,5.64-20.11,11.69-29,19.18-2.17,1.83-3.88,1-5.89.43-27.41-7.86-55.07-8.09-82.9-2.69A47.39,47.39,0,0,0,496.62,718c-1.48.8-2.56,1-4-.06-11.09-8.25-23.32-14.58-35.6-20.79,4.88-8.92,14.05-10.84,22.6-13,26.9-6.64,54.42-6.14,81.75-4.9,18.78.85,37.67,3,55.41,10.39C620.78,691.35,623.9,694.42,627.91,696Z"/><path class="cls-1" d="M314.22,906.28c-4.89-9.55-5.83-18.61-4.74-28a24.45,24.45,0,0,0,.48-3.45c-.11-3.38-2.19-5.27-5.31-5.56s-4.32,1.61-4.82,4.53a57.11,57.11,0,0,0-.8,14.92c.26,2.94-.87,4.17-3.41,5.06-13.15,4.62-26.16-3.41-27.88-17.29a12.48,12.48,0,0,1-.19-1.48c0-4.06-.7-7.63-5.9-7.15s-4.66,4.5-4.38,7.95c.63,7.66,3.2,14.56,8.52,20.31,2.67,2.88,2.4,11.65-.36,16.36-2.52,4.29-6.5,4.78-10.87,4-7.55-1.25-11.89-6.26-14.54-13-7.82-19.67-7.07-39.43.49-58.88,9.23-23.74,26.41-40.86,47.38-54.43,23.21-15,49.1-22.42,76.26-26a5.6,5.6,0,0,1,4.13,1.24,371.15,371.15,0,0,1,38,29.2c2.24,2,2.51,3.54.69,5.69a3.5,3.5,0,0,0-.53.84c-2.67,5.79-5.52,9-13.55,8-14.33-1.91-23.07,6.92-24.5,23.73-1,11.31-5.69,19.74-14.19,26.85-8.16,6.83-16.53,13.47-23.6,21.51A107.34,107.34,0,0,0,314.22,906.28Z"/><path class="cls-1" d="M742.25,963.19a161.59,161.59,0,0,0-4.86-54.93C728.82,876,711,849.32,687.78,825.92c-6.95-7-7-7-.4-14.16,7.45-8.11,15.93-15.14,24-22.64,1.57-1.46,2.83-1.2,4.44-.33,6.68,3.55,9.57,9.44,10.23,16.64a51.64,51.64,0,0,1-3,22.1c-1.1,3.1-1.64,6.07,2.2,7.43s6.43-.35,7.65-4.17c.75-2.37,1.44-4.76,2.17-7.16,9.65,4.27,13.24,18.44,12.61,26.76a37.85,37.85,0,0,1-4.56,16.19c-1.74,3-1.73,5.88,1.6,7.66,3.5,1.88,5.93.33,7.67-3a41.21,41.21,0,0,0,4.34-11.63c2.08-11.43,8.34-20.55,15.84-28.91,3.6-4,8.31-7.93,14-5.14,5.83,2.88,4.68,9,3.82,14.27-2.43,14.89-10.1,27.65-16.7,40.85-4.52,9.06-8.88,18.2-13.21,27.34a24.58,24.58,0,0,0-2.56,8.57c-.22,2.78.4,5.08,3.58,5.58,3,.46,5.26-.57,6.32-3.56a41.57,41.57,0,0,0,2-6.15c1-5.45,4.75-6.57,9.49-6.36,9.55.43,18,3.19,23.9,11.29,5.47,7.55,3.7,14.75-4.6,19A34.29,34.29,0,0,1,792,938.9C774.15,943.81,756.67,949.47,742.25,963.19Z"/><path class="cls-6" d="M546,782.37c-9-23.32-24.06-40.7-42.34-56.15a56.74,56.74,0,0,1,22.55-5.76c18.94-1.3,37.87-1.45,56.51,3,1.35.32,3.46-.06,3.92,1.57s-1.48,2.38-2.47,3.38C568.66,744,556.47,761.87,546,782.37Z"/><path class="cls-1" d="M236.1,829.74c-5,10.17-8.87,20.18-10.43,31a2.48,2.48,0,0,1-2,2.38c-7.15,1.86-17.11-2-21.09-8.26s-2.91-12.51,3.18-17a27.19,27.19,0,0,1,9-4.15C221.56,831.74,228.59,830.83,236.1,829.74Z"/><rect class="cls-7" width="999.91" height="999.91"/></g></g></svg>