<svg xmlns="http://www.w3.org/2000/svg" viewBox="0 0 999.91 999.91"><defs><style>.cls-1{fill:#fce174;}.cls-2{fill:#fac675;}.cls-3{fill:#80aefc;}.cls-4{fill:#fff;opacity:0;}</style></defs><g id="Шар_2" data-name="Шар 2"><g id="Yellow_coller" data-name="Yellow coller"><path class="cls-1" d="M339,999.91h-108c-1.92-2.31-1.46-5.07-1.2-7.67,5.37-53.67,13-107,24.06-159.83,4.54-21.74,10.7-43,23.58-61.61,16-23.13,36.58-41.19,60.95-55.09a261.79,261.79,0,0,1,45.17-19.88c2-.7,4-1.6,6.29-1.34,4,1.89,6.38,5.76,10,8.18,8.8,5.89,18.5,9.9,28.28,13.7,16.64,6.45,33.76,11.42,50.93,16.24a82.39,82.39,0,0,0,17.75,2.63c9.29.53,15.14-5.32,19.8-12.33a306.3,306.3,0,0,0,24-43.78c1-2.28,2-4.6,3.18-6.79,1-1.83,1.53-4.52,4-4.64s3.22,2.59,4.13,4.44c2.35,4.79,5,9.44,7.63,14.05a168.93,168.93,0,0,0,15,22.41c7.8,9.58,17.44,12.43,29,7.75,16-6.5,26-18.63,31-35a28.62,28.62,0,0,0,.84-3.91c.57-3.69,2.57-4.56,6.05-3.57a128.77,128.77,0,0,1,32,13.85c22.17,13.51,37.78,32.91,49.61,55.6,20.13,38.57,31.35,79.86,37.2,122.78,4.49,33,8,66.08,11.17,99.21,1,10.1,2.22,20.18,3,30.3.11,1.46.66,3-.47,4.32H680c-2.82-6.27-2-13.07-2.38-19.59-1.13-19.76-2.63-39.5-3.86-59.25-1.31-20.92-2.84-41.83-4.45-62.72a110.24,110.24,0,0,1,.5-21.88,8.33,8.33,0,0,0,0-3.48c-.48-1.53-1.38-2.69-3.12-2.78-1.57-.08-2.37,1-2.92,2.28a19,19,0,0,0-1.18,6.85c-.68,18.68,1.3,37.24,2.55,55.83,1.09,16.26,2.18,32.53,3.39,48.79,1.11,14.92,1.68,29.89,2.77,44.81.28,3.75,1.19,7.67-1.29,11.14H349c-1.77-5.89-.76-11.91-.2-17.75.82-8.62,1-17.28,1.42-25.9,1-22.43,2.59-44.84,3.43-67.28.26-7,.7-14,1-20.93.1-2.17.38-4.75-2.68-5-2.75-.18-3.78,2.18-3.93,4.34-.59,8.46-1,16.93-1.51,25.4-.89,16.77-1.68,33.55-2.69,50.32-.49,8.13-1.1,16.27-1.21,24.41-.11,8.5-1.46,16.92-1.25,25.43A9.36,9.36,0,0,1,339,999.91Z"/><path d="M773.94,999.91c-2.07-12.14-2.63-24.44-4-36.65-5.22-46.92-8.36-94.15-19.09-140.3-7.63-32.85-19.2-64.29-37.17-93.05q-25.35-40.56-71.27-54.49c-4-1.2-5-.71-5.94,3.56-3.56,16.75-13.28,29.21-28.43,37.09-13.93,7.24-25.64,4.63-35.37-7.65-8.08-10.2-14.41-21.55-20.59-33-1.32-2.43-2.61-4.88-4.16-7.77-6.14,12.23-11.84,24-17.9,35.5-3.39,6.47-7.43,12.59-11,18.94-7.13,12.52-17.7,16.87-31.61,13.62-27.23-6.38-53.79-14.76-79.2-26.55A52.56,52.56,0,0,1,389.71,695c-4.65-3.36-6.18-8.6-7.59-13.66-1.13-4.07-3-4.82-6.86-3.85-47.27,11.91-84.2,38-109.89,79.68-17.79,28.86-28.49,60.47-35.88,93.3a949,949,0,0,0-16.69,94.41,332.24,332.24,0,0,0-2.41,47.82c.05,2.44.53,5-1.32,7.18h-11c1.3-7.08.48-14.25.71-21.37,1.09-33.22,6.52-65.84,12.89-98.36,6-30.84,12.76-61.49,24.28-90.88,18.34-46.82,48.27-83.44,93.38-106.81A203.08,203.08,0,0,1,377.44,665c2-.46,3.86-.51,4.12-3.32C384.33,632.13,404,618.9,430,612c15.25-4,30.95-4.47,46.58-4.8,30.13-.64,60.26-.51,90.34,1.78a165.88,165.88,0,0,1,30.52,4.71c23.76,6.39,36.66,21.23,39.58,45.6.28,2.38.45,4.22,3.55,5,43.58,11.27,73,39.19,92.51,78.82,17.87,36.26,29,74.51,34.87,114.4,6.94,47.27,10.92,94.88,16,142.36Z"/><path class="cls-2" d="M209.07,999.91c-1-29.23,2.07-58.13,7-86.86,5.34-31.28,10.73-62.56,20.09-93,9.8-31.87,23.59-61.71,45.37-87.38,25.71-30.28,58.79-48.14,96.95-57.44,2.32-.56,3.57-.46,4,2.42,1,6.32,3.83,12,7.22,17.35-13.93,4.9-27.79,10-41,16.62a195,195,0,0,0-59.26,45.53c-15.92,18-25.59,39.32-31.19,62.58-6.43,26.69-11,53.73-15.18,80.84-3.14,20.56-6.38,41.11-8.74,61.77-1.42,12.46-3.33,24.93-3.27,37.54Z"/><path d="M670,999.91q-2.3-38.08-4.59-76.16c-1.52-25.89-4.24-51.7-4.85-77.64a60.67,60.67,0,0,1,1.28-13.88c.67-3.18,2.47-4.75,5.63-4.14,3,.57,4.83,2.53,4.46,5.67-3.47,29.69,2.58,59,3.76,88.49,1,25.9,3.81,51.72,4.31,77.66Z"/><path d="M339,999.91q3-54.52,6-109c.44-8,.77-15.94,1.24-23.91.22-3.7,1.55-6.61,6-6.25,3.92.33,4.6,2.85,4.4,6.35-1.6,28.22-3.06,56.44-4.59,84.66q-1.24,23.16-2.57,46.31a9.36,9.36,0,0,1-.48,1.89Z"/><path class="cls-3" d="M538.19,663.18c-8.52,18.4-17.42,36.58-28,53.9-5.15,8.41-11.88,10.55-21.17,8.41a440.73,440.73,0,0,1-70.58-22.79c-.61-.26-1.22-.54-1.82-.82-15-6.9-24.86-17.25-24.83-35.09.05-18.4,8.7-30.92,24.79-38.77,14.66-7.15,30.56-8.87,46.52-9.91,34.45-2.25,68.88-1,103.28,1a169.46,169.46,0,0,1,28.08,4.32c24.61,5.64,33.2,24,32.8,46.43-.31,17.31-10,29.57-25,37.51-8.44,4.46-14.61,3.47-20.36-3.95-10.51-13.56-18.89-28.47-26.37-44.41,9.85-2,19.31-3.81,28.41-7A129.75,129.75,0,0,0,606,641.91c3.2-1.86,4-4.45,2.4-7.55s-4.44-3.31-7.25-1.6c-20,12.22-42.5,15.36-65.21,18.34-35.66,4.66-69.83-3-104-11.08a29.58,29.58,0,0,1-6-2.43c-2.68-1.31-5-1-6.46,1.6s-1.41,5.14,1.13,7.13a23.58,23.58,0,0,0,9.5,4.25c29.57,6.63,59.29,12.33,89.77,12.34C524.91,662.92,525,663,538.19,663.18Z"/><rect class="cls-4" width="999.91" height="999.91"/></g></g></svg>