<svg xmlns="http://www.w3.org/2000/svg" xmlns:xlink="http://www.w3.org/1999/xlink" viewBox="0 0 999.91 1000"><defs><style>.cls-1{fill:url(#Градієнт_без_назви_37);}.cls-2{fill:url(#Градієнт_без_назви_37-2);}.cls-3{fill:url(#Градієнт_без_назви_37-3);}.cls-11,.cls-4{fill:#fff;}.cls-5{fill:#6e5e68;}.cls-6{fill:#fde275;}.cls-7{fill:#fce274;}.cls-8{fill:#fddf77;}.cls-9{fill:#fde274;}.cls-10{fill:#fce47f;}.cls-11{opacity:0;}</style><linearGradient id="Градієнт_без_назви_37" x1="217" y1="863.31" x2="497" y2="863.31" gradientUnits="userSpaceOnUse"><stop offset="0" stop-color="#feb495"/><stop offset="1" stop-color="#ffe375"/></linearGradient><linearGradient id="Градієнт_без_назви_37-2" x1="581" y1="861.76" x2="762" y2="861.76" xlink:href="#Градієнт_без_назви_37"/><linearGradient id="Градієнт_без_назви_37-3" x1="312.66" y1="790.32" x2="689.24" y2="790.32" xlink:href="#Градієнт_без_назви_37"/></defs><g id="Шар_2" data-name="Шар 2"><g id="Fire"><path d="M207,1000c1.37-10,2.7-20.09,4.13-30.13,8.62-60.15,19-120,34-178.92,4.56-18,11-35.28,23.11-49.85,9.33-11.19,20.25-20.18,34.34-25.3-2.48-13.94,3.39-24.62,13.06-33.8,1.21-1.15,2.34-2.38,3.54-3.53,4.85-4.66,6.79-10,4.66-16.72-2.5-7.91-1.46-15.81,1.22-23.52a18.7,18.7,0,0,1,2-4c3.08-4.71,7.26-4.63,10.16.16,1.71,2.84,3.1,5.93,5.13,8.51,3.89,4.93,8,6.12,13.64,3.35,6.56-3.2,12.78-7.11,19.07-10.83,4.58-2.71,8.9-5.91,13.6-8.38a24.57,24.57,0,0,0,13.15-17.22,7.5,7.5,0,0,1,3.92-4.75c3-1.07,5.74.72,6.53,3.83a97.72,97.72,0,0,1,2.27,13.17c.51,4.62.07,9.4,1,13.89.51,2.35,2.9,5.54,4.92,5.94s4.52-2.28,6.64-3.85a8.65,8.65,0,0,0,1.86-2.93c3.43-6.3,8.76-9.75,15.76-11,7.9-1.45,8.5-2.59,6.31-10.43-.4-1.44-1.25-2.84-1.31-4.27-.09-2.34-.54-5.5.72-6.82s4.7-1.74,6.77-1.13c10.94,3.18,19.07,9.94,23.89,20.4a40.47,40.47,0,0,1,2,5.11c1.56,5.17,5.08,8,10.27,9.06,2.6.52,5.17,1.24,7.76,1.85a37.65,37.65,0,0,1,20,11.5c5.15,5.72,11.21,5.5,16.24-.34a33.17,33.17,0,0,0,3.78-6.4c8.69-16.5,20.82-28.63,39.82-32.73,13.8-3,17.31-10.83,13.63-24.45-2.13-7.84-1.92-16.37-2.13-24.6,0-1.69,2.45-4.3,4.31-4.95,2.79-1,4.69.95,5.94,3.86a31.3,31.3,0,0,0,5.15,7.83c8.42,9.77,15.89,20.1,20.51,32.28a45.21,45.21,0,0,1-.61,35c-1.76,4.13-3.73,8.19-5.19,12.43-2.72,7.87,2,14.71,10.31,14.78a58.19,58.19,0,0,0,13.34-1.51c8-1.85,15.17-.88,21.74,4.12A37.34,37.34,0,0,0,671.7,667c6.16,3.6,12.38,4.21,19.09,1.2a7.31,7.31,0,0,1,6.24.62c1.21.89,1.23,3.69,1.36,5.68.38,5.61.53,11.23.8,16.84.31,6.31.54,12.61,1.06,18.9.13,1.55.85,3.66,2,4.44C729.94,733.23,744.6,760,749.78,792c4.6,28.4,8.06,57,11.1,85.65,4.06,38.24,7.23,76.57,10.75,114.87.23,2.49.25,5,.37,7.48H762c-2.67-29.83-4.94-59.71-8.12-89.49-4-37.06-8.26-74.08-13.2-111-2.78-20.84-9.53-40.57-23.49-56.91-5.53-6.47-12.05-12.1-19.08-19.06-5,17-17.32,24-30.65,30A37.92,37.92,0,0,0,663,755.8c-9.71,6-19.88,11.72-17.34,25.93a2.92,2.92,0,0,1-.19,1c-1.59,8-3.3,15.93-4.72,23.93-1.37,7.78,2.7,11.88,10.46,10.78,10.6-1.49,16.81-8.65,22-17.12,2.08-3.39,4.11-6.83,6.43-10.06.78-1.08,2.4-2.25,3.6-2.2,1.8.07,4.76.8,5.09,1.9.68,2.22.82,5.49-.4,7.24-6.93,10-9.4,21.1-10.1,32.94-1.07,18.12-8.15,33.72-21.71,45.7-10.19,9-21.49,16.75-32.13,25.27q-18.85,15.1-37.36,30.67a9.18,9.18,0,0,0-2.67,6c-.44,7.81-.23,15.65-.62,23.46-.65,13-1.57,25.89-2.37,38.84H514c-.59-14.62-1.45-29.24-1.73-43.87-.59-31.47-1.41-63-1.07-94.43a116.33,116.33,0,0,0-7.95-43.21c-8.21-21.78-21.64-39.21-40-53.11-15.79-12-33.3-20.64-52-27.09-15.54-5.36-19.57-19.15-9.89-32.54,5.45-7.55,13.24-11.54,21.93-13.88,24.42-6.6,49.45-8.43,74.59-9.71,33.37-1.69,66.13,2.87,98.74,9,10,1.88,19.82,4.74,27.1,12.7,5.19,5.68,6.06,11.95,1.48,18.16a94.47,94.47,0,0,1-11.91,12.68c-12.45,11.6-22,24.9-25.94,41.76-4.52,19.57-5.79,39.53-5.82,59.49,0,21,1.07,41.94,1.59,62.91.16,6.39,0,12.8,0,20.17,1.81-1.26,2.49-1.69,3.11-2.18,10.36-8.08,20.66-16.24,31.08-24.24C627.22,885,637.63,878,647.11,870c14.29-12.16,20.11-28.45,20.59-46.73-4.41,1.54-8.66,3.57-13.13,4.48-16.67,3.36-27.12-7-24.08-23.72a113.13,113.13,0,0,1,2.72-11.65c2.75-9.28,2-17.93-3.1-26.4a29.38,29.38,0,0,1-3.62-11.28c-.94-7.49,1.85-13.69,8.17-18.13,2.72-1.92,5.32-2.13,7.45.66,2,2.6,1.72,5.24-.63,7.62-5.66,5.71-6,8.59-1.78,16.28,8.17-10.47,19.63-15.79,31.11-21.19,10.58-5,17.31-13.56,18.13-25.14.8-11.3-.24-22.72-.44-32.85-7.32-1.54-13.85-1.3-18.34-4.2-10-6.5-19.56-7.69-31.39-5.38-17.08,3.32-34.19-11.27-24.55-32.57a67.25,67.25,0,0,0,3.11-7.34c1.39-4.43,3.15-8.88,3.58-13.43,1.48-15.62-7.76-26.86-16.35-38.34a3.19,3.19,0,0,0,0,2.36c7.62,14.06-2.87,35.38-21.94,37.33a29.84,29.84,0,0,0-19.88,10.61,114.55,114.55,0,0,0-13.63,20c-6.36,12-24.23,18.76-36,5.56a27.61,27.61,0,0,0-17.29-9.17c-12.29-1.7-20.28-7.88-24.18-20-1.4-4.33-5.11-7.92-7.76-11.85l-1.2.86c0,9.64-2.4,14.14-10.68,16.07-7.64,1.78-13.1,5.25-17.14,12.16-3.39,5.81-8.88,9.89-16.3,8.07-7.72-1.9-11.95-7.48-13.65-15.05-.56-2.49-.86-5-1.26-7.45-12.93,7.91-25.37,15.93-38.21,23.25s-20.32,6.13-31.21-3.41c-.18-.15-.6,0-1.56,0,.46,3.66.49,7.35,1.43,10.78,2.32,8.49.37,15.84-5.25,22.31-3.27,3.76-7.05,7.08-10.28,10.88-7.83,9.17-8,19.44-.05,28.45,3.48,3.94,7.51,7.88,12.1,10.26,17.51,9.07,35.34,17.5,53.48,26.37-.16-1.08-.1-1.47-.27-1.64-2.81-3-4.59-6.2-.6-9.35s6.82-.33,9.17,2.7c8.77,11.32,10.49,23.86,5.81,37.21-2.52,7.19-7.93,11.17-15.56,12.38-7.17,1.14-13.28-1.49-19.53-5.22,0,1.68,0,2.81,0,3.94.45,9-3.14,14.63-11.9,17.11A30.39,30.39,0,0,1,339,817.35c-6-.87-11.76-3-17.9-4.66-1,10.54,3.66,19.06,10.63,26.58C344,852.51,360,859.52,376.47,865.71c42.08,15.83,76.4,41.42,101.16,79.41,11.54,17.7,23.64,35,31.37,54.88H497c-.59-1.53-1.12-3.09-1.79-4.59-8.88-19.69-21.35-37.19-34.06-54.46a216.94,216.94,0,0,0-21.3-24.44c-18-18-40-29.5-63.13-39.41-12.21-5.24-24.59-10.38-36-17.06-21-12.26-33.36-29.91-29.77-55.6.4-2.83,1.54-6.31,3.58-8,2.8-2.29,5.37.69,7.72,2.56,6.55,5.23,13.75,8.79,22.45,7.9,6.43-.66,7.94-3.24,7.57-9.62a81.21,81.21,0,0,1,1-17.12c.26-1.65,3-3.84,4.82-4s4,1.59,5.59,3c3.74,3.16,6.78,7.49,11,9.71,6.4,3.41,12,.22,14.5-6.6,1.86-5-.12-8.24-4.23-10.31-12-6.06-24.1-12-36.28-17.74-12.68-6-25.34-11.9-35.62-21.75-7.76-7.43-7.74-7.46-17.08-1.56-1.12.71-2.2,1.5-3.3,2.24-20,13.58-30.47,33.5-36.44,56.1-13.7,51.85-22.44,104.69-31.1,157.54-2.9,17.72-5.43,35.51-8.13,53.27Z"/><path class="cls-1" d="M495.21,995.41c.67,1.5,1.2,3.06,1.79,4.59H328c0-11.67.39-23.34,0-35-.69-19.62-1.39-39.27-3.1-58.83-.57-6.5-3.85-12.91-6.66-19-1.54-3.37-5.22-3.39-8.22-1.32s-2.09,4.53-.6,7.4c2,3.78,4.1,7.84,4.58,12,3.68,31.49,3.46,63.14,3,94.79H217c2.7-17.76,5.23-35.55,8.13-53.27,8.66-52.85,17.4-105.69,31.1-157.54,6-22.6,16.41-42.52,36.44-56.1,1.1-.74,2.18-1.53,3.3-2.24,9.34-5.9,9.32-5.87,17.08,1.56,10.28,9.85,22.94,15.79,35.62,21.75,12.18,5.73,24.26,11.68,36.28,17.74,4.11,2.07,6.09,5.33,4.23,10.31-2.54,6.82-8.1,10-14.5,6.6-4.19-2.22-7.23-6.55-11-9.71-1.63-1.37-3.84-3.16-5.59-3s-4.56,2.39-4.82,4a81.21,81.21,0,0,0-1,17.12c.37,6.38-1.14,9-7.57,9.62-8.7.89-15.9-2.67-22.45-7.9-2.35-1.87-4.92-4.85-7.72-2.56-2,1.67-3.18,5.15-3.58,8-3.59,25.69,8.8,43.34,29.77,55.6,11.42,6.68,23.8,11.82,36,17.06,23.09,9.91,45.18,21.43,63.13,39.41A216.94,216.94,0,0,1,461.15,941C473.86,958.22,486.33,975.72,495.21,995.41Z"/><path class="cls-2" d="M762,1000H691c-.54-19.29-1.13-38.59-1.6-57.88q-.72-30-1.21-59.91c-.06-3.68-1.82-5.8-5.34-5.86s-5.3,2.19-5.24,5.83c.24,14,.36,28,.65,42,.53,25.29,1.16,50.57,1.74,75.86H581c.8-13,1.72-25.89,2.37-38.84.39-7.81.18-15.65.62-23.46a9.18,9.18,0,0,1,2.67-6q18.48-15.57,37.36-30.67c10.64-8.52,21.94-16.27,32.13-25.27,13.56-12,20.64-27.58,21.71-45.7.7-11.84,3.17-23,10.1-32.94,1.22-1.75,1.08-5,.4-7.24-.33-1.1-3.29-1.83-5.09-1.9-1.2,0-2.82,1.12-3.6,2.2-2.32,3.23-4.35,6.67-6.43,10.06-5.21,8.47-11.42,15.63-22,17.12-7.76,1.1-11.83-3-10.46-10.78,1.42-8,3.13-16,4.72-23.93a2.92,2.92,0,0,0,.19-1c-2.54-14.21,7.63-19.93,17.34-25.93a37.92,37.92,0,0,1,4.45-2.26c13.33-6,25.63-13.07,30.65-30,7,7,13.55,12.59,19.08,19.06,14,16.34,20.71,36.07,23.49,56.91,4.94,36.94,9.25,74,13.2,111C757.06,940.29,759.33,970.17,762,1000Z"/><path class="cls-3" d="M512.27,956.13c.28,14.63,1.14,29.25,1.73,43.87h-5c-7.73-19.86-19.83-37.18-31.37-54.88-24.76-38-59.08-63.58-101.16-79.41-16.44-6.19-32.47-13.2-44.73-26.44-7-7.52-11.67-16-10.63-26.58,6.14,1.67,11.93,3.79,17.9,4.66a30.39,30.39,0,0,0,12.25-1.13c8.76-2.48,12.35-8.07,11.9-17.11-.06-1.13,0-2.26,0-3.94,6.25,3.73,12.36,6.36,19.53,5.22,7.63-1.21,13-5.19,15.56-12.38,4.68-13.35,3-25.89-5.81-37.21-2.35-3-5.17-5.85-9.17-2.7s-2.21,6.39.6,9.35c.17.17.11.56.27,1.64-18.14-8.87-36-17.3-53.48-26.37-4.59-2.38-8.62-6.32-12.1-10.26-7.94-9-7.78-19.28.05-28.45,3.23-3.8,7-7.12,10.28-10.88,5.62-6.47,7.57-13.82,5.25-22.31-.94-3.43-1-7.12-1.43-10.78,1,0,1.38-.13,1.56,0,10.89,9.54,18.46,10.68,31.21,3.41s25.28-15.34,38.21-23.25c.4,2.41.7,5,1.26,7.45,1.7,7.57,5.93,13.15,13.65,15.05,7.42,1.82,12.91-2.26,16.3-8.07,4-6.91,9.5-10.38,17.14-12.16,8.28-1.93,10.72-6.43,10.68-16.07l1.2-.86c2.65,3.93,6.36,7.52,7.76,11.85,3.9,12.08,11.89,18.26,24.18,20a27.61,27.61,0,0,1,17.29,9.17c11.75,13.2,29.62,6.43,36-5.56a114.55,114.55,0,0,1,13.63-20,29.84,29.84,0,0,1,19.88-10.61c19.07-2,29.56-23.27,21.94-37.33a3.19,3.19,0,0,1,0-2.36c8.59,11.48,17.83,22.72,16.35,38.34-.43,4.55-2.19,9-3.58,13.43a67.25,67.25,0,0,1-3.11,7.34c-9.64,21.3,7.47,35.89,24.55,32.57,11.83-2.31,21.37-1.12,31.39,5.38,4.49,2.9,11,2.66,18.34,4.2.2,10.13,1.24,21.55.44,32.85-.82,11.58-7.55,20.16-18.13,25.14-11.48,5.4-22.94,10.72-31.11,21.19-4.26-7.69-3.88-10.57,1.78-16.28,2.35-2.38,2.61-5,.63-7.62-2.13-2.79-4.73-2.58-7.45-.66-6.32,4.44-9.11,10.64-8.17,18.13a29.38,29.38,0,0,0,3.62,11.28c5.08,8.47,5.85,17.12,3.1,26.4A113.13,113.13,0,0,0,630.49,804c-3,16.69,7.41,27.08,24.08,23.72,4.47-.91,8.72-2.94,13.13-4.48-.48,18.28-6.3,34.57-20.59,46.73C637.63,878,627.22,885,617.33,892.6c-10.42,8-20.72,16.16-31.08,24.24-.62.49-1.3.92-3.11,2.18,0-7.37.13-13.78,0-20.17-.52-21-1.63-41.94-1.59-62.91,0-20,1.3-39.92,5.82-59.49,3.9-16.86,13.49-30.16,25.94-41.76A94.47,94.47,0,0,0,625.19,722c4.58-6.21,3.71-12.48-1.48-18.16-7.28-8-17.06-10.82-27.1-12.7-32.61-6.12-65.37-10.68-98.74-9-25.14,1.28-50.17,3.11-74.59,9.71-8.69,2.34-16.48,6.33-21.93,13.88-9.68,13.39-5.65,27.18,9.89,32.54,18.72,6.45,36.23,15.12,52,27.09,18.35,13.9,31.78,31.33,40,53.11a116.33,116.33,0,0,1,7.95,43.21C510.86,893.17,511.68,924.66,512.27,956.13Z"/><path d="M680,1000c-.58-25.29-1.21-50.57-1.74-75.86-.29-14-.41-28-.65-42-.06-3.64,1.61-5.89,5.24-5.83s5.28,2.18,5.34,5.86q.52,30,1.21,59.91c.47,19.29,1.06,38.59,1.6,57.88Z"/><path d="M317,1000c.44-31.65.66-63.3-3-94.79-.48-4.13-2.62-8.19-4.58-12-1.49-2.87-2.42-5.32.6-7.4s6.68-2.05,8.22,1.32c2.81,6.1,6.09,12.51,6.66,19,1.71,19.56,2.41,39.21,3.1,58.83.41,11.66,0,23.33,0,35Z"/><path d="M156,1000c-1.85-7.31.24-14.08,2.56-20.94,3.35-9.9,6.15-20,9.47-29.9.63-1.91,2.45-4.62,3.94-4.76a7.47,7.47,0,0,1,6,3c9.42,16.27,17.11,33.15,16,52.64H183c2.46-12.75-2.88-23.65-7.95-36.15-2.74,7.9-4.8,14.35-7.22,20.66-2,5.14-2.57,10.22-.83,15.49Z"/><path class="cls-4" d="M167,1000c-1.74-5.27-1.15-10.35.83-15.49,2.42-6.31,4.48-12.76,7.22-20.66,5.07,12.5,10.41,23.4,7.95,36.15Z"/><path d="M781.48,770.42c.07-6.74,4.49-15.46,9.19-24.11a91.06,91.06,0,0,0,5.25-10.68c.71-1.87-.08-4.27.43-6.27s1.36-4.41,2.8-5.08,4.93-.29,5.77.88c10.84,15.25,21,31,20.17,50.75-.51,12.07-10.7,19.59-23.67,18.91C789.16,794.17,781.55,786.17,781.48,770.42Zm23.12-27.15c-2.77,5.09-5.54,9.46-7.59,14.15a63.93,63.93,0,0,0-4.86,14.52c-1.31,7.62,2.49,12.41,9,12.67,8.41.35,14-4.37,13.83-12C814.66,762,809.42,753,804.6,743.27Z"/><path d="M380.51,599.93c-.08,16.18-10.33,25.14-23.1,22.17-9-2.09-13.82-9.71-10.72-18.44,2.08-5.87,5.49-11.29,8.5-16.81,2.32-4.25,4.67-8.24,3.58-13.56-.32-1.58,1.63-4.85,3.12-5.26,1.86-.52,5.23.41,6.37,1.92C375.42,579.35,380.21,589.81,380.51,599.93ZM368,588.74h-1.77c-3.06,5.28-6.35,10.45-9,15.93-.81,1.68-.63,5.42.42,6.08,1.91,1.18,5.63,1.86,7.13.75,2.38-1.75,4.79-5.06,5-7.84C370,598.74,368.65,593.72,368,588.74Z"/><path class="cls-4" d="M804.6,743.27c4.82,9.74,10.06,18.69,10.34,29.36.19,7.61-5.42,12.33-13.83,12-6.47-.26-10.27-5.05-9-12.67A63.93,63.93,0,0,1,797,757.42C799.06,752.73,801.83,748.36,804.6,743.27Z"/><path class="cls-4" d="M368,588.74c.67,5,2,10,1.74,14.92-.18,2.78-2.59,6.09-5,7.84-1.5,1.11-5.22.43-7.13-.75-1.05-.66-1.23-4.4-.42-6.08,2.66-5.48,5.95-10.65,9-15.93Z"/><path class="cls-5" d="M524,999.91c-.43-22-.51-43.95-1.39-65.9-.88-22.13-.29-44.27-.89-66.4-.25-9.14-.06-18.32-.8-27.42-.79-9.73-5.4-18.45-8.75-27.45-11.62-31.14-34-52.73-62.3-68.84-11.31-6.44-23.34-11.28-35.46-15.92-8-3.05-9.73-8.43-5-15.62,3.7-5.6,9.36-8.46,15.55-10.17a255.84,255.84,0,0,1,48.6-8.15c12.76-1,25.57-2,38.35-1.82,21.95.23,43.83,1.95,65.43,6.24,7.81,1.55,15.79,2.24,23.49,4.44a34.84,34.84,0,0,1,12.9,6.31c4.24,3.51,4.32,5.84.57,10-5.47,6-12.14,10.85-17.43,17.14a93.4,93.4,0,0,0-21.12,45c-3.35,19.1-4.27,38.27-4.9,57.54-1,29.45,2.52,58.78,2.29,88.23-.18,24.3-.44,48.58-2.16,72.83Z"/><path class="cls-6" d="M318,999.91h-70c-3.72-3.33-3.25-7.84-3-12a38.61,38.61,0,0,1,3.75-14.43c4.89-10.46,12.9-18.76,19.54-28,6.61-8.24,13.44-16.34,16.84-26.6a10,10,0,0,0,.05-6.2,3.63,3.63,0,0,1,.41-2.19c3-1.18,3.08,1.58,3.74,3.1,3,6.86,1.83,13.66-.9,20.26a91.64,91.64,0,0,0-6.38,22.38,35.8,35.8,0,0,0,.49,11.83c1.38,7.4,7.81,12.86,15.76,8.22,6.2-2.47,9.59-7.77,13.08-13a63.19,63.19,0,0,1,3.5-5.36c1.29-1.57,2.41-1.51,3.31.41,1.31,3.14,1.34,6.44,1.35,9.75,0,8.42,0,16.84,0,25.26C319.59,995.63,319.74,998,318,999.91Z"/><path class="cls-6" d="M727,999.91c-2.81-11.62-3.35-23.22.4-34.76.56-1.74,1.07-3.48,1.61-5.22,3.1.67,2.25,3.28,2.25,5.16a43.22,43.22,0,0,0,2.59,13.62c1.42,4.34,4,7.61,8.38,9.2,4.59,1.25,9.25,2.25,13.88,3.31,3.68.85,6,2.53,5.62,6.63.09.69.17,1.37.26,2.06Z"/><path class="cls-7" d="M167.08,999.91a18.26,18.26,0,0,1,0-13.56c2.62-7.25,5.1-14.56,8.12-23.23,4.8,12.77,11,23.74,7.91,36.79Z"/><path class="cls-8" d="M650,999.91a6.88,6.88,0,0,0,1-4c1.16-.67.89-2,1.39-3.89l3.61,7.9Z"/><path class="cls-6" d="M411.2,882c-16.23-8.69-33.35-15.41-50.27-22.6-11.07-4.71-21.15-11.15-29.37-20.09-7.07-7.69-11.72-16.38-10.56-27.83,5.95,2.74,11.58,5.36,17.92,5.82a31.52,31.52,0,0,0,13.24-1.39c8.2-3,11.39-8.3,10.81-17.87-.19-1.19-1.49-2.76,1-3a24,24,0,0,0,17.7,5.24c9.44-1,15.4-6.19,17.66-16.31,2.68-11.94.87-23.15-7-33-2.23-2.79-4.76-5.83-8.71-3-4.15,3-2.65,6.21.23,9.25.24.26.1.86.19,1.86-16.59-8.78-33.95-15-50-23.92a55.25,55.25,0,0,1-14.59-11.19c-9.29-10.38-9.37-20.77-.11-31.14,3.1-3.47,6.59-6.6,9.61-10.13,5.29-6.2,7.42-13.29,5-21.35a30.16,30.16,0,0,1-.93-12c.48.14,1,.15,1.24.4,9.7,9.25,17.06,11,28.82,4.67,13.86-7.48,27.08-16.12,40.82-24.41.29,1.91.67,4.23,1,6.56a20,20,0,0,0,3.95,9.57c6.69,8.69,17.33,9.69,23.73.92,5.76-7.89,12-13.45,21.77-15.65,6.58-1.48,8.32-6.41,7.85-15.72,3.65,1.53,5.73,4.39,7.69,7.34a9.14,9.14,0,0,1,1.33,2.67c3.6,13.89,13.18,20.43,26.85,22.17,6,.76,11,3.93,14.9,8.41,11.44,13.06,30.14,7.14,36-5.87,3.31-7.32,7.28-14.17,13.36-19.66,5.79-5.24,12.1-9.79,20-10.49,17.25-1.53,30.36-20.77,21.4-38.59-.26-.51-.95-1-.21-1.68,14.53,10.47,21.17,34.72,14.21,52-1.67,4.15-3.59,8.22-4.94,12.48C608.7,657.53,616.41,669.82,630,672a39.47,39.47,0,0,0,18.25-1.45,13.41,13.41,0,0,1,12.33,1.7c7.53,5.21,15.44,9.23,25,7.89,1-.14,2-.07,2.13,1.35.94,10.91,3.48,21.72,1.7,32.79-2.12,13.14-9.48,22.1-21.57,27.22-10.7,4.52-20.53,10.22-28,19.41-4.78-6.21-4.52-11.14.94-16,2.76-2.45,3.17-5.05,1-7.84s-4.76-2.17-7.44-.32c-8.69,6-10.59,17.68-4.21,29.12,3.61,6.47,5.89,13.06,4.38,20.48-1,4.72-2.39,9.34-3.34,14.06-1.69,8.34-2.86,17,4.62,23.15,8,6.51,17.11,5.14,26,1.61,2-.79,3.79-2,6-3.1-.42,18.91-6.39,35-20.36,47.76-9.09,8.28-18.62,16-29.62,21.66a10.33,10.33,0,0,0-1.84,1.62c-2.65-1.2-2.44-3.71-2.48-5.92-.05-3.6-1.88-5-5.25-4.88s-6.55-.48-9.77.41a38.14,38.14,0,0,0-8.89,3.28c-6.54,1.91-7.1,1.51-7.19-5.17a7.23,7.23,0,0,0-.31-2.92c0-1.35,0-2.7,0-4.05,3.84-11.59,4.93-23.16.42-34.9-1.87-4.87-1.37-10-.64-15.14a190.34,190.34,0,0,1,6.39-51.81c4.08-15.18,13.47-27.29,25.06-37.72,4.08-3.67,8.31-7.19,11.38-11.83,4.57-6.88,4-13-1.59-19-7.12-7.57-16.55-10.4-26.23-12.16-29.15-5.29-58.35-10.13-88.17-9.29-28.64.8-57.18,2.39-85,9.8-7.31,1.94-14.11,5-19.42,10.65a32.81,32.81,0,0,0-3.72,4.68c-8.36,13-4.26,25.55,10.28,30.69a220.18,220.18,0,0,1,28,11.83c19,9.83,35.78,22.43,48.93,39.5,4.15,5.39,8,11,10.31,17.51,1.19,2.69-.89,4-2.33,5.61-3.95,2.83-7.47,6.19-11.26,9.21-3.8,2.39-6.53,6.08-10.37,8.42a18.29,18.29,0,0,1-9.15,3.14,28,28,0,0,1-8.74-2.15,49.11,49.11,0,0,1-6.4-3.22c-3-1.69-6.14-3.24-9.09-5.06A41.88,41.88,0,0,0,432.6,819c-2.21-.73-4.37-1.64-6.74-1.7-6.11-.61-11,1.52-15,6.16-3.3,3.82-3.73,7-1,11.32a81.56,81.56,0,0,0,7.45,9.36c5.09,5.89,5.13,9.9-.4,15.15-6,5.74-8.91,11.91-5,20C412.24,880.05,413.19,881.5,411.2,882Z"/><path class="cls-6" d="M269.12,825.92c1.46,8.24,1.06,16.45.3,24.74-.7,7.62-1.3,15.16-4.36,22.27-1.27,5.8-8.25,11.49-14.14,11-2.59-.24-5.3,0-7.84-.9l-7-1.09c2.19-15.92,6-31.5,9.35-47.2,1.53-7.29,3.31-14.52,5-21.78a11.88,11.88,0,0,1,13.81,1.57C267.58,817.27,270.51,820.82,269.12,825.92Z"/><path class="cls-9" d="M804.46,742.81c4.88,9.47,9.82,18.2,10.56,28.4.64,8.93-6.35,14.92-15.25,13.41-5.46-.92-8.69-5.17-8.26-11.22a35.66,35.66,0,0,1,4-13.78C798.3,754.17,801.26,748.8,804.46,742.81Z"/><path class="cls-10" d="M366.63,587.65c2.8,5.57,4.29,10.92,3.46,16.71a9.35,9.35,0,0,1-6,7.89,6.22,6.22,0,0,1-6.89-1.41c-1.88-1.77-1.43-4-.35-6C359.94,599.2,363.2,593.64,366.63,587.65Z"/><polygon points="316.99 950.54 318.04 999.91 323.98 1000 320.48 950.54 316.99 950.54"/><rect class="cls-11" width="999.91" height="999.91"/></g></g></svg>